<mxfile host="65bd71144e" modified="2021-01-17T08:35:50.187Z" agent="5.0 (Macintosh; Intel Mac OS X 11_0_0) AppleWebKit/537.36 (KHTML, like Gecko) Code/1.52.1 Chrome/83.0.4103.122 Electron/9.3.5 Safari/537.36" version="13.10.0" etag="NTf91ORUJIzODK2FZdEI" type="embed" pages="2">
    <diagram id="3An-12R-vcHjeYbKUcpQ" name="美团octo万亿级数据中心计算引擎">
        <mxGraphModel dx="898" dy="680" grid="1" gridSize="10" guides="1" tooltips="1" connect="1" arrows="1" fold="1" page="1" pageScale="1" pageWidth="850" pageHeight="1100" math="0" shadow="0">
            <root>
                <mxCell id="0"/>
                <mxCell id="1" parent="0"/>
                <mxCell id="46" style="edgeStyle=orthogonalEdgeStyle;rounded=0;orthogonalLoop=1;jettySize=auto;html=1;exitX=0.75;exitY=1;exitDx=0;exitDy=0;entryX=0.75;entryY=0;entryDx=0;entryDy=0;" edge="1" parent="1" source="2" target="8">
                    <mxGeometry relative="1" as="geometry"/>
                </mxCell>
                <mxCell id="2" value="" style="rounded=0;whiteSpace=wrap;html=1;" vertex="1" parent="1">
                    <mxGeometry x="120" y="170" width="720" height="80" as="geometry"/>
                </mxCell>
                <mxCell id="3" value="采集节点-1" style="rounded=0;whiteSpace=wrap;html=1;fillColor=#ffffff;" vertex="1" parent="1">
                    <mxGeometry x="220" y="190" width="90" height="40" as="geometry"/>
                </mxCell>
                <mxCell id="4" value="采集节点-2" style="rounded=0;whiteSpace=wrap;html=1;fillColor=#ffffff;" vertex="1" parent="1">
                    <mxGeometry x="330" y="190" width="90" height="40" as="geometry"/>
                </mxCell>
                <mxCell id="5" value="采集节点-100000" style="rounded=0;whiteSpace=wrap;html=1;fillColor=#ffffff;" vertex="1" parent="1">
                    <mxGeometry x="510" y="190" width="90" height="40" as="geometry"/>
                </mxCell>
                <mxCell id="6" value="&lt;span style=&quot;font-size: 18px&quot;&gt;....&lt;/span&gt;" style="text;html=1;align=center;verticalAlign=middle;resizable=0;points=[];autosize=1;" vertex="1" parent="1">
                    <mxGeometry x="445" y="200" width="40" height="20" as="geometry"/>
                </mxCell>
                <mxCell id="47" style="edgeStyle=orthogonalEdgeStyle;rounded=0;orthogonalLoop=1;jettySize=auto;html=1;exitX=0.75;exitY=1;exitDx=0;exitDy=0;entryX=0.75;entryY=0;entryDx=0;entryDy=0;" edge="1" parent="1" source="8" target="44">
                    <mxGeometry relative="1" as="geometry"/>
                </mxCell>
                <mxCell id="8" value="" style="rounded=0;whiteSpace=wrap;html=1;" vertex="1" parent="1">
                    <mxGeometry x="120" y="290" width="720" height="80" as="geometry"/>
                </mxCell>
                <mxCell id="9" value="一致性hash，同一个appkey数据必须发送到同一个计算节点" style="text;html=1;align=center;verticalAlign=middle;resizable=0;points=[];autosize=1;" vertex="1" parent="1">
                    <mxGeometry x="200" y="380" width="330" height="20" as="geometry"/>
                </mxCell>
                <mxCell id="10" value="路由节点-1" style="rounded=0;whiteSpace=wrap;html=1;fillColor=#ffffff;" vertex="1" parent="1">
                    <mxGeometry x="220" y="310" width="90" height="40" as="geometry"/>
                </mxCell>
                <mxCell id="11" value="路由节点-2" style="rounded=0;whiteSpace=wrap;html=1;fillColor=#ffffff;" vertex="1" parent="1">
                    <mxGeometry x="330" y="310" width="90" height="40" as="geometry"/>
                </mxCell>
                <mxCell id="12" value="路由节点-200" style="rounded=0;whiteSpace=wrap;html=1;fillColor=#ffffff;" vertex="1" parent="1">
                    <mxGeometry x="510" y="310" width="90" height="40" as="geometry"/>
                </mxCell>
                <mxCell id="13" value="&lt;span style=&quot;font-size: 18px&quot;&gt;....&lt;/span&gt;" style="text;html=1;align=center;verticalAlign=middle;resizable=0;points=[];autosize=1;" vertex="1" parent="1">
                    <mxGeometry x="445" y="320" width="40" height="20" as="geometry"/>
                </mxCell>
                <mxCell id="14" value="几十万应用采集节点，随机发送数据，数万条rpc链接" style="text;html=1;align=center;verticalAlign=middle;resizable=0;points=[];autosize=1;" vertex="1" parent="1">
                    <mxGeometry x="200" y="260" width="300" height="20" as="geometry"/>
                </mxCell>
                <mxCell id="36" style="edgeStyle=orthogonalEdgeStyle;rounded=0;orthogonalLoop=1;jettySize=auto;html=1;exitX=1;exitY=0.5;exitDx=0;exitDy=0;entryX=0;entryY=0.5;entryDx=0;entryDy=0;" edge="1" parent="1" source="15" target="16">
                    <mxGeometry relative="1" as="geometry"/>
                </mxCell>
                <mxCell id="15" value="异步接受&amp;amp;解析" style="rounded=0;whiteSpace=wrap;html=1;fillColor=#ffffff;" vertex="1" parent="1">
                    <mxGeometry x="240" y="440" width="120" height="40" as="geometry"/>
                </mxCell>
                <mxCell id="37" style="edgeStyle=orthogonalEdgeStyle;rounded=0;orthogonalLoop=1;jettySize=auto;html=1;exitX=1;exitY=0.5;exitDx=0;exitDy=0;entryX=0;entryY=0.5;entryDx=0;entryDy=0;" edge="1" parent="1" source="16" target="17">
                    <mxGeometry relative="1" as="geometry"/>
                </mxCell>
                <mxCell id="16" value="计算模型构建actor" style="rounded=0;whiteSpace=wrap;html=1;fillColor=#ffffff;" vertex="1" parent="1">
                    <mxGeometry x="410" y="440" width="150" height="40" as="geometry"/>
                </mxCell>
                <mxCell id="38" style="edgeStyle=orthogonalEdgeStyle;rounded=0;orthogonalLoop=1;jettySize=auto;html=1;exitX=0.5;exitY=1;exitDx=0;exitDy=0;" edge="1" parent="1" source="17" target="19">
                    <mxGeometry relative="1" as="geometry"/>
                </mxCell>
                <mxCell id="39" style="edgeStyle=orthogonalEdgeStyle;rounded=0;orthogonalLoop=1;jettySize=auto;html=1;exitX=0.5;exitY=1;exitDx=0;exitDy=0;" edge="1" parent="1" source="17" target="25">
                    <mxGeometry relative="1" as="geometry"/>
                </mxCell>
                <mxCell id="40" style="edgeStyle=orthogonalEdgeStyle;rounded=0;orthogonalLoop=1;jettySize=auto;html=1;exitX=0.5;exitY=1;exitDx=0;exitDy=0;entryX=0.636;entryY=-0.05;entryDx=0;entryDy=0;entryPerimeter=0;" edge="1" parent="1" source="17" target="31">
                    <mxGeometry relative="1" as="geometry"/>
                </mxCell>
                <mxCell id="17" value="维度管理actor" style="rounded=0;whiteSpace=wrap;html=1;fillColor=#ffffff;" vertex="1" parent="1">
                    <mxGeometry x="605" y="440" width="130" height="40" as="geometry"/>
                </mxCell>
                <mxCell id="18" value="" style="rounded=0;whiteSpace=wrap;html=1;fillColor=#ffffff;" vertex="1" parent="1">
                    <mxGeometry x="150" y="580" width="200" height="110" as="geometry"/>
                </mxCell>
                <mxCell id="19" value="分钟粒度actor计算集" style="text;html=1;align=center;verticalAlign=middle;resizable=0;points=[];autosize=1;" vertex="1" parent="1">
                    <mxGeometry x="175" y="580" width="130" height="20" as="geometry"/>
                </mxCell>
                <mxCell id="20" value="主机+接口" style="rounded=0;whiteSpace=wrap;html=1;fillColor=#ffffff;" vertex="1" parent="1">
                    <mxGeometry x="160" y="630" width="70" height="30" as="geometry"/>
                </mxCell>
                <mxCell id="21" value="远程主机+接口" style="rounded=0;whiteSpace=wrap;html=1;fillColor=#ffffff;" vertex="1" parent="1">
                    <mxGeometry x="240" y="600" width="80" height="40" as="geometry"/>
                </mxCell>
                <mxCell id="22" value="远程服务" style="rounded=0;whiteSpace=wrap;html=1;fillColor=#ffffff;" vertex="1" parent="1">
                    <mxGeometry x="240" y="650" width="80" height="30" as="geometry"/>
                </mxCell>
                <mxCell id="23" value="..." style="text;html=1;align=center;verticalAlign=middle;resizable=0;points=[];autosize=1;" vertex="1" parent="1">
                    <mxGeometry x="325" y="620" width="30" height="20" as="geometry"/>
                </mxCell>
                <mxCell id="24" value="" style="rounded=0;whiteSpace=wrap;html=1;fillColor=#ffffff;" vertex="1" parent="1">
                    <mxGeometry x="380" y="580" width="200" height="110" as="geometry"/>
                </mxCell>
                <mxCell id="25" value="小时粒度actor计算集" style="text;html=1;align=center;verticalAlign=middle;resizable=0;points=[];autosize=1;" vertex="1" parent="1">
                    <mxGeometry x="405" y="580" width="130" height="20" as="geometry"/>
                </mxCell>
                <mxCell id="26" value="主机+接口" style="rounded=0;whiteSpace=wrap;html=1;fillColor=#ffffff;" vertex="1" parent="1">
                    <mxGeometry x="390" y="630" width="70" height="30" as="geometry"/>
                </mxCell>
                <mxCell id="27" value="远程主机+接口" style="rounded=0;whiteSpace=wrap;html=1;fillColor=#ffffff;" vertex="1" parent="1">
                    <mxGeometry x="470" y="600" width="80" height="40" as="geometry"/>
                </mxCell>
                <mxCell id="28" value="远程服务" style="rounded=0;whiteSpace=wrap;html=1;fillColor=#ffffff;" vertex="1" parent="1">
                    <mxGeometry x="470" y="650" width="80" height="30" as="geometry"/>
                </mxCell>
                <mxCell id="29" value="..." style="text;html=1;align=center;verticalAlign=middle;resizable=0;points=[];autosize=1;" vertex="1" parent="1">
                    <mxGeometry x="550" y="625" width="30" height="20" as="geometry"/>
                </mxCell>
                <mxCell id="30" value="" style="rounded=0;whiteSpace=wrap;html=1;fillColor=#ffffff;" vertex="1" parent="1">
                    <mxGeometry x="610" y="580" width="200" height="110" as="geometry"/>
                </mxCell>
                <mxCell id="31" value="天粒度actor计算集" style="text;html=1;align=center;verticalAlign=middle;resizable=0;points=[];autosize=1;" vertex="1" parent="1">
                    <mxGeometry x="645" y="580" width="110" height="20" as="geometry"/>
                </mxCell>
                <mxCell id="32" value="接口" style="rounded=0;whiteSpace=wrap;html=1;fillColor=#ffffff;" vertex="1" parent="1">
                    <mxGeometry x="620" y="630" width="70" height="30" as="geometry"/>
                </mxCell>
                <mxCell id="34" value="服务" style="rounded=0;whiteSpace=wrap;html=1;fillColor=#ffffff;" vertex="1" parent="1">
                    <mxGeometry x="725" y="630" width="80" height="30" as="geometry"/>
                </mxCell>
                <mxCell id="41" value="HBase集群" style="shape=cylinder3;whiteSpace=wrap;html=1;boundedLbl=1;backgroundOutline=1;size=15;fillColor=#ffffff;" vertex="1" parent="1">
                    <mxGeometry x="235" y="750" width="95" height="60" as="geometry"/>
                </mxCell>
                <mxCell id="42" value="Cellar集群" style="shape=cylinder3;whiteSpace=wrap;html=1;boundedLbl=1;backgroundOutline=1;size=15;fillColor=#ffffff;" vertex="1" parent="1">
                    <mxGeometry x="360" y="750" width="95" height="60" as="geometry"/>
                </mxCell>
                <mxCell id="43" value="Mysql集群" style="shape=cylinder3;whiteSpace=wrap;html=1;boundedLbl=1;backgroundOutline=1;size=15;fillColor=#ffffff;" vertex="1" parent="1">
                    <mxGeometry x="485" y="750" width="95" height="60" as="geometry"/>
                </mxCell>
                <mxCell id="51" style="edgeStyle=orthogonalEdgeStyle;rounded=0;orthogonalLoop=1;jettySize=auto;html=1;exitX=0.75;exitY=1;exitDx=0;exitDy=0;entryX=0.75;entryY=0;entryDx=0;entryDy=0;" edge="1" parent="1" source="44" target="45">
                    <mxGeometry relative="1" as="geometry"/>
                </mxCell>
                <mxCell id="44" value="" style="rounded=0;whiteSpace=wrap;html=1;fillColor=none;" vertex="1" parent="1">
                    <mxGeometry x="120" y="420" width="720" height="290" as="geometry"/>
                </mxCell>
                <mxCell id="45" value="" style="rounded=0;whiteSpace=wrap;html=1;fillColor=none;" vertex="1" parent="1">
                    <mxGeometry x="120" y="740" width="720" height="80" as="geometry"/>
                </mxCell>
                <mxCell id="48" value="RPC调用" style="text;html=1;align=center;verticalAlign=middle;resizable=0;points=[];autosize=1;" vertex="1" parent="1">
                    <mxGeometry x="665" y="260" width="60" height="20" as="geometry"/>
                </mxCell>
                <mxCell id="49" value="RPC调用" style="text;html=1;align=center;verticalAlign=middle;resizable=0;points=[];autosize=1;" vertex="1" parent="1">
                    <mxGeometry x="665" y="380" width="60" height="20" as="geometry"/>
                </mxCell>
                <mxCell id="52" value="存储层" style="text;html=1;align=center;verticalAlign=middle;resizable=0;points=[];autosize=1;" vertex="1" parent="1">
                    <mxGeometry x="25" y="770" width="50" height="20" as="geometry"/>
                </mxCell>
                <mxCell id="53" value="计算层" style="text;html=1;align=center;verticalAlign=middle;resizable=0;points=[];autosize=1;" vertex="1" parent="1">
                    <mxGeometry x="25" y="550" width="50" height="20" as="geometry"/>
                </mxCell>
                <mxCell id="54" value="路由层" style="text;html=1;align=center;verticalAlign=middle;resizable=0;points=[];autosize=1;" vertex="1" parent="1">
                    <mxGeometry x="25" y="320" width="50" height="20" as="geometry"/>
                </mxCell>
                <mxCell id="55" value="采集层" style="text;html=1;align=center;verticalAlign=middle;resizable=0;points=[];autosize=1;" vertex="1" parent="1">
                    <mxGeometry x="25" y="200" width="50" height="20" as="geometry"/>
                </mxCell>
                <mxCell id="56" value="计算节点&lt;br&gt;有状态" style="text;html=1;align=center;verticalAlign=middle;resizable=0;points=[];autosize=1;" vertex="1" parent="1">
                    <mxGeometry x="130" y="480" width="60" height="30" as="geometry"/>
                </mxCell>
            </root>
        </mxGraphModel>
    </diagram>
    <diagram id="yPdCcMtzugV6ZgscYUkI" name="数据流汇总">
        <mxGraphModel dx="898" dy="680" grid="1" gridSize="10" guides="1" tooltips="1" connect="1" arrows="1" fold="1" page="1" pageScale="1" pageWidth="850" pageHeight="1100" math="0" shadow="0">
            <root>
                <mxCell id="hsnsQ7sLJtvx2Zg388qv-0"/>
                <mxCell id="hsnsQ7sLJtvx2Zg388qv-1" parent="hsnsQ7sLJtvx2Zg388qv-0"/>
                <mxCell id="ehFJxMDNpgQIAw868Mmo-28" style="edgeStyle=orthogonalEdgeStyle;rounded=0;orthogonalLoop=1;jettySize=auto;html=1;exitX=0.5;exitY=1;exitDx=0;exitDy=0;entryX=0.5;entryY=0;entryDx=0;entryDy=0;fillColor=#dae8fc;strokeColor=#6c8ebf;strokeWidth=3;" edge="1" parent="hsnsQ7sLJtvx2Zg388qv-1" source="ehFJxMDNpgQIAw868Mmo-0" target="ehFJxMDNpgQIAw868Mmo-1">
                    <mxGeometry relative="1" as="geometry"/>
                </mxCell>
                <mxCell id="ehFJxMDNpgQIAw868Mmo-0" value="TOPIC&lt;br&gt;采集原始数据" style="rounded=0;whiteSpace=wrap;html=1;fillColor=#fff2cc;dashed=1;strokeWidth=3;strokeColor=#FF0000;" vertex="1" parent="hsnsQ7sLJtvx2Zg388qv-1">
                    <mxGeometry x="40" y="210" width="120" height="60" as="geometry"/>
                </mxCell>
                <mxCell id="ehFJxMDNpgQIAw868Mmo-29" style="edgeStyle=orthogonalEdgeStyle;rounded=0;orthogonalLoop=1;jettySize=auto;html=1;exitX=1;exitY=0.5;exitDx=0;exitDy=0;entryX=0;entryY=0.5;entryDx=0;entryDy=0;strokeWidth=3;fillColor=#f8cecc;strokeColor=#b85450;" edge="1" parent="hsnsQ7sLJtvx2Zg388qv-1" source="ehFJxMDNpgQIAw868Mmo-1" target="ehFJxMDNpgQIAw868Mmo-2">
                    <mxGeometry relative="1" as="geometry"/>
                </mxCell>
                <mxCell id="ehFJxMDNpgQIAw868Mmo-30" style="edgeStyle=orthogonalEdgeStyle;rounded=0;orthogonalLoop=1;jettySize=auto;html=1;exitX=1;exitY=0.5;exitDx=0;exitDy=0;entryX=0;entryY=0.5;entryDx=0;entryDy=0;strokeWidth=2;strokeColor=#FF9999;endSize=1;" edge="1" parent="hsnsQ7sLJtvx2Zg388qv-1" source="ehFJxMDNpgQIAw868Mmo-1" target="ehFJxMDNpgQIAw868Mmo-4">
                    <mxGeometry relative="1" as="geometry"/>
                </mxCell>
                <mxCell id="ehFJxMDNpgQIAw868Mmo-1" value="解析构建&lt;br&gt;触发散列" style="rounded=0;whiteSpace=wrap;html=1;fillColor=#d5e8d4;dashed=1;strokeWidth=3;strokeColor=#FF0000;" vertex="1" parent="hsnsQ7sLJtvx2Zg388qv-1">
                    <mxGeometry x="40" y="310" width="120" height="60" as="geometry"/>
                </mxCell>
                <mxCell id="ehFJxMDNpgQIAw868Mmo-31" style="edgeStyle=orthogonalEdgeStyle;rounded=0;orthogonalLoop=1;jettySize=auto;html=1;exitX=0.5;exitY=1;exitDx=0;exitDy=0;entryX=0.5;entryY=0;entryDx=0;entryDy=0;endSize=1;strokeColor=#6c8ebf;strokeWidth=2;fillColor=#dae8fc;" edge="1" parent="hsnsQ7sLJtvx2Zg388qv-1" source="ehFJxMDNpgQIAw868Mmo-2" target="ehFJxMDNpgQIAw868Mmo-3">
                    <mxGeometry relative="1" as="geometry"/>
                </mxCell>
                <mxCell id="ehFJxMDNpgQIAw868Mmo-2" value="三级topic&lt;br&gt;主机+ip+远程服务" style="rounded=0;whiteSpace=wrap;html=1;fillColor=#fff2cc;dashed=1;strokeWidth=3;strokeColor=#FF0000;" vertex="1" parent="hsnsQ7sLJtvx2Zg388qv-1">
                    <mxGeometry x="240" y="140" width="120" height="60" as="geometry"/>
                </mxCell>
                <mxCell id="ehFJxMDNpgQIAw868Mmo-32" style="edgeStyle=orthogonalEdgeStyle;rounded=0;orthogonalLoop=1;jettySize=auto;html=1;exitX=1;exitY=0.5;exitDx=0;exitDy=0;entryX=0;entryY=0.5;entryDx=0;entryDy=0;endSize=1;strokeColor=#b85450;strokeWidth=4;fillColor=#f8cecc;" edge="1" parent="hsnsQ7sLJtvx2Zg388qv-1" source="ehFJxMDNpgQIAw868Mmo-3" target="ehFJxMDNpgQIAw868Mmo-6">
                    <mxGeometry relative="1" as="geometry"/>
                </mxCell>
                <mxCell id="ehFJxMDNpgQIAw868Mmo-33" style="edgeStyle=orthogonalEdgeStyle;rounded=0;orthogonalLoop=1;jettySize=auto;html=1;exitX=1;exitY=0.5;exitDx=0;exitDy=0;entryX=0;entryY=0.5;entryDx=0;entryDy=0;endSize=1;strokeColor=#FF9999;strokeWidth=2;" edge="1" parent="hsnsQ7sLJtvx2Zg388qv-1" source="ehFJxMDNpgQIAw868Mmo-3" target="ehFJxMDNpgQIAw868Mmo-7">
                    <mxGeometry relative="1" as="geometry"/>
                </mxCell>
                <mxCell id="ehFJxMDNpgQIAw868Mmo-3" value="主机+接口+远程服务&lt;br&gt;consumer" style="rounded=0;whiteSpace=wrap;html=1;fillColor=#d5e8d4;dashed=1;strokeWidth=3;strokeColor=#FF0000;" vertex="1" parent="hsnsQ7sLJtvx2Zg388qv-1">
                    <mxGeometry x="240" y="240" width="120" height="60" as="geometry"/>
                </mxCell>
                <mxCell id="ehFJxMDNpgQIAw868Mmo-37" style="edgeStyle=orthogonalEdgeStyle;rounded=0;orthogonalLoop=1;jettySize=auto;html=1;exitX=0.5;exitY=1;exitDx=0;exitDy=0;entryX=0.5;entryY=0;entryDx=0;entryDy=0;endSize=1;strokeColor=#6c8ebf;strokeWidth=2;fillColor=#dae8fc;" edge="1" parent="hsnsQ7sLJtvx2Zg388qv-1" source="ehFJxMDNpgQIAw868Mmo-4" target="ehFJxMDNpgQIAw868Mmo-5">
                    <mxGeometry relative="1" as="geometry"/>
                </mxCell>
                <mxCell id="ehFJxMDNpgQIAw868Mmo-4" value="三级topic&lt;br&gt;主机+远程服务+远程主机ip" style="rounded=0;whiteSpace=wrap;html=1;dashed=1;strokeWidth=3;strokeColor=#FF0000;fillColor=#FFFFCC;" vertex="1" parent="hsnsQ7sLJtvx2Zg388qv-1">
                    <mxGeometry x="240" y="320" width="120" height="60" as="geometry"/>
                </mxCell>
                <mxCell id="ehFJxMDNpgQIAw868Mmo-36" style="edgeStyle=orthogonalEdgeStyle;rounded=0;orthogonalLoop=1;jettySize=auto;html=1;exitX=1;exitY=0.5;exitDx=0;exitDy=0;entryX=0;entryY=0.5;entryDx=0;entryDy=0;endSize=1;strokeColor=#b85450;strokeWidth=2;fillColor=#f8cecc;" edge="1" parent="hsnsQ7sLJtvx2Zg388qv-1" source="ehFJxMDNpgQIAw868Mmo-5" target="ehFJxMDNpgQIAw868Mmo-9">
                    <mxGeometry relative="1" as="geometry"/>
                </mxCell>
                <mxCell id="ehFJxMDNpgQIAw868Mmo-38" style="edgeStyle=orthogonalEdgeStyle;rounded=0;orthogonalLoop=1;jettySize=auto;html=1;exitX=1;exitY=0.5;exitDx=0;exitDy=0;entryX=0;entryY=0.5;entryDx=0;entryDy=0;endSize=1;strokeColor=#b85450;strokeWidth=2;fillColor=#f8cecc;" edge="1" parent="hsnsQ7sLJtvx2Zg388qv-1" source="ehFJxMDNpgQIAw868Mmo-5" target="ehFJxMDNpgQIAw868Mmo-10">
                    <mxGeometry relative="1" as="geometry"/>
                </mxCell>
                <mxCell id="ehFJxMDNpgQIAw868Mmo-5" value="主机+远程服务+远程主机ip&lt;br&gt;consumer" style="rounded=0;whiteSpace=wrap;html=1;dashed=1;strokeWidth=3;strokeColor=#FF0000;fillColor=#CCFFFF;" vertex="1" parent="hsnsQ7sLJtvx2Zg388qv-1">
                    <mxGeometry x="240" y="420" width="120" height="60" as="geometry"/>
                </mxCell>
                <mxCell id="ehFJxMDNpgQIAw868Mmo-34" style="edgeStyle=orthogonalEdgeStyle;rounded=0;orthogonalLoop=1;jettySize=auto;html=1;exitX=1;exitY=0.5;exitDx=0;exitDy=0;entryX=0;entryY=0.5;entryDx=0;entryDy=0;endSize=1;strokeColor=#6c8ebf;strokeWidth=2;fillColor=#dae8fc;" edge="1" parent="hsnsQ7sLJtvx2Zg388qv-1" source="ehFJxMDNpgQIAw868Mmo-6" target="ehFJxMDNpgQIAw868Mmo-11">
                    <mxGeometry relative="1" as="geometry"/>
                </mxCell>
                <mxCell id="ehFJxMDNpgQIAw868Mmo-6" value="二级topic&lt;br&gt;主机+接口" style="rounded=0;whiteSpace=wrap;html=1;fillColor=#fff2cc;dashed=1;strokeWidth=3;strokeColor=#FF0000;" vertex="1" parent="hsnsQ7sLJtvx2Zg388qv-1">
                    <mxGeometry x="420" y="140" width="120" height="60" as="geometry"/>
                </mxCell>
                <mxCell id="ehFJxMDNpgQIAw868Mmo-35" style="edgeStyle=orthogonalEdgeStyle;rounded=0;orthogonalLoop=1;jettySize=auto;html=1;exitX=1;exitY=0.5;exitDx=0;exitDy=0;entryX=0;entryY=0.5;entryDx=0;entryDy=0;endSize=1;strokeColor=#6c8ebf;strokeWidth=2;fillColor=#dae8fc;" edge="1" parent="hsnsQ7sLJtvx2Zg388qv-1" source="ehFJxMDNpgQIAw868Mmo-7" target="ehFJxMDNpgQIAw868Mmo-12">
                    <mxGeometry relative="1" as="geometry"/>
                </mxCell>
                <mxCell id="ehFJxMDNpgQIAw868Mmo-7" value="二级topic&lt;br&gt;远程服务+接口" style="rounded=0;whiteSpace=wrap;html=1;dashed=1;strokeWidth=3;strokeColor=#FF0000;fillColor=#FFFFCC;" vertex="1" parent="hsnsQ7sLJtvx2Zg388qv-1">
                    <mxGeometry x="420" y="240" width="120" height="60" as="geometry"/>
                </mxCell>
                <mxCell id="ehFJxMDNpgQIAw868Mmo-8" value="二级topic&lt;br&gt;远程主机+主机ip" style="rounded=0;whiteSpace=wrap;html=1;dashed=1;strokeWidth=3;strokeColor=#FF0000;fillColor=#FFFFCC;" vertex="1" parent="hsnsQ7sLJtvx2Zg388qv-1">
                    <mxGeometry x="420" y="320" width="120" height="60" as="geometry"/>
                </mxCell>
                <mxCell id="ehFJxMDNpgQIAw868Mmo-39" style="edgeStyle=orthogonalEdgeStyle;rounded=0;orthogonalLoop=1;jettySize=auto;html=1;exitX=1;exitY=0.5;exitDx=0;exitDy=0;entryX=0;entryY=0.5;entryDx=0;entryDy=0;endSize=1;strokeColor=#6c8ebf;strokeWidth=2;fillColor=#dae8fc;" edge="1" parent="hsnsQ7sLJtvx2Zg388qv-1" source="ehFJxMDNpgQIAw868Mmo-9" target="ehFJxMDNpgQIAw868Mmo-14">
                    <mxGeometry relative="1" as="geometry"/>
                </mxCell>
                <mxCell id="ehFJxMDNpgQIAw868Mmo-9" value="二级topic&lt;br&gt;远程服务+远程主机ip" style="rounded=0;whiteSpace=wrap;html=1;dashed=1;strokeWidth=3;strokeColor=#FF0000;fillColor=#FFFFCC;" vertex="1" parent="hsnsQ7sLJtvx2Zg388qv-1">
                    <mxGeometry x="420" y="420" width="120" height="60" as="geometry"/>
                </mxCell>
                <mxCell id="ehFJxMDNpgQIAw868Mmo-40" style="edgeStyle=orthogonalEdgeStyle;rounded=0;orthogonalLoop=1;jettySize=auto;html=1;exitX=1;exitY=0.5;exitDx=0;exitDy=0;entryX=0;entryY=0.5;entryDx=0;entryDy=0;endSize=1;strokeColor=#6c8ebf;strokeWidth=2;fillColor=#dae8fc;" edge="1" parent="hsnsQ7sLJtvx2Zg388qv-1" source="ehFJxMDNpgQIAw868Mmo-10" target="ehFJxMDNpgQIAw868Mmo-15">
                    <mxGeometry relative="1" as="geometry"/>
                </mxCell>
                <mxCell id="ehFJxMDNpgQIAw868Mmo-10" value="二级topic&lt;br&gt;远程服务+主机" style="rounded=0;whiteSpace=wrap;html=1;dashed=1;strokeWidth=3;strokeColor=#FF0000;fillColor=#FFFFCC;" vertex="1" parent="hsnsQ7sLJtvx2Zg388qv-1">
                    <mxGeometry x="420" y="520" width="120" height="60" as="geometry"/>
                </mxCell>
                <mxCell id="ehFJxMDNpgQIAw868Mmo-47" style="edgeStyle=orthogonalEdgeStyle;rounded=0;orthogonalLoop=1;jettySize=auto;html=1;exitX=1;exitY=0.5;exitDx=0;exitDy=0;entryX=0;entryY=0.5;entryDx=0;entryDy=0;endSize=1;strokeColor=#b85450;strokeWidth=2;fillColor=#f8cecc;" edge="1" parent="hsnsQ7sLJtvx2Zg388qv-1" source="ehFJxMDNpgQIAw868Mmo-11" target="ehFJxMDNpgQIAw868Mmo-16">
                    <mxGeometry relative="1" as="geometry"/>
                </mxCell>
                <mxCell id="ehFJxMDNpgQIAw868Mmo-48" style="edgeStyle=orthogonalEdgeStyle;rounded=0;orthogonalLoop=1;jettySize=auto;html=1;exitX=1;exitY=0.5;exitDx=0;exitDy=0;entryX=0;entryY=0.5;entryDx=0;entryDy=0;endSize=1;strokeColor=#b85450;strokeWidth=2;fillColor=#f8cecc;" edge="1" parent="hsnsQ7sLJtvx2Zg388qv-1" source="ehFJxMDNpgQIAw868Mmo-11" target="ehFJxMDNpgQIAw868Mmo-17">
                    <mxGeometry relative="1" as="geometry"/>
                </mxCell>
                <mxCell id="ehFJxMDNpgQIAw868Mmo-11" value="主机+接口&lt;br&gt;consumer" style="rounded=0;whiteSpace=wrap;html=1;fillColor=#d5e8d4;dashed=1;strokeWidth=3;strokeColor=#FF0000;" vertex="1" parent="hsnsQ7sLJtvx2Zg388qv-1">
                    <mxGeometry x="590" y="140" width="120" height="60" as="geometry"/>
                </mxCell>
                <mxCell id="ehFJxMDNpgQIAw868Mmo-53" style="edgeStyle=orthogonalEdgeStyle;rounded=0;orthogonalLoop=1;jettySize=auto;html=1;exitX=1;exitY=0.5;exitDx=0;exitDy=0;entryX=0;entryY=0.5;entryDx=0;entryDy=0;endSize=1;strokeColor=#b85450;strokeWidth=2;fillColor=#f8cecc;" edge="1" parent="hsnsQ7sLJtvx2Zg388qv-1" source="ehFJxMDNpgQIAw868Mmo-12" target="ehFJxMDNpgQIAw868Mmo-18">
                    <mxGeometry relative="1" as="geometry"/>
                </mxCell>
                <mxCell id="ehFJxMDNpgQIAw868Mmo-54" style="edgeStyle=orthogonalEdgeStyle;rounded=0;orthogonalLoop=1;jettySize=auto;html=1;exitX=1;exitY=0.5;exitDx=0;exitDy=0;entryX=0;entryY=0.5;entryDx=0;entryDy=0;endSize=1;strokeColor=#b85450;strokeWidth=2;fillColor=#f8cecc;" edge="1" parent="hsnsQ7sLJtvx2Zg388qv-1" source="ehFJxMDNpgQIAw868Mmo-12" target="ehFJxMDNpgQIAw868Mmo-19">
                    <mxGeometry relative="1" as="geometry"/>
                </mxCell>
                <mxCell id="ehFJxMDNpgQIAw868Mmo-12" value="远程服务+接口&lt;br&gt;consumer" style="rounded=0;whiteSpace=wrap;html=1;dashed=1;strokeWidth=3;strokeColor=#FF0000;fillColor=#CCFFFF;" vertex="1" parent="hsnsQ7sLJtvx2Zg388qv-1">
                    <mxGeometry x="590" y="230" width="120" height="60" as="geometry"/>
                </mxCell>
                <mxCell id="ehFJxMDNpgQIAw868Mmo-13" value="远程服务+接口&lt;br&gt;consumer" style="rounded=0;whiteSpace=wrap;html=1;dashed=1;strokeWidth=3;strokeColor=#FF0000;fillColor=#CCFFFF;" vertex="1" parent="hsnsQ7sLJtvx2Zg388qv-1">
                    <mxGeometry x="590" y="320" width="120" height="60" as="geometry"/>
                </mxCell>
                <mxCell id="ehFJxMDNpgQIAw868Mmo-51" style="edgeStyle=orthogonalEdgeStyle;rounded=0;orthogonalLoop=1;jettySize=auto;html=1;exitX=1;exitY=0.5;exitDx=0;exitDy=0;entryX=0;entryY=0.5;entryDx=0;entryDy=0;endSize=1;strokeColor=#b85450;strokeWidth=2;fillColor=#f8cecc;" edge="1" parent="hsnsQ7sLJtvx2Zg388qv-1" source="ehFJxMDNpgQIAw868Mmo-14" target="ehFJxMDNpgQIAw868Mmo-20">
                    <mxGeometry relative="1" as="geometry"/>
                </mxCell>
                <mxCell id="ehFJxMDNpgQIAw868Mmo-14" value="远程服务+接口&lt;br&gt;consumer" style="rounded=0;whiteSpace=wrap;html=1;dashed=1;strokeWidth=3;strokeColor=#FF0000;fillColor=#CCFFFF;" vertex="1" parent="hsnsQ7sLJtvx2Zg388qv-1">
                    <mxGeometry x="590" y="420" width="120" height="60" as="geometry"/>
                </mxCell>
                <mxCell id="ehFJxMDNpgQIAw868Mmo-52" style="edgeStyle=orthogonalEdgeStyle;rounded=0;orthogonalLoop=1;jettySize=auto;html=1;exitX=1;exitY=0.5;exitDx=0;exitDy=0;entryX=0;entryY=0.5;entryDx=0;entryDy=0;endSize=1;strokeColor=#b85450;strokeWidth=2;fillColor=#f8cecc;" edge="1" parent="hsnsQ7sLJtvx2Zg388qv-1" source="ehFJxMDNpgQIAw868Mmo-15" target="ehFJxMDNpgQIAw868Mmo-21">
                    <mxGeometry relative="1" as="geometry"/>
                </mxCell>
                <mxCell id="ehFJxMDNpgQIAw868Mmo-15" value="远程服务+接口&lt;br&gt;consumer" style="rounded=0;whiteSpace=wrap;html=1;dashed=1;strokeWidth=3;strokeColor=#FF0000;fillColor=#CCFFFF;" vertex="1" parent="hsnsQ7sLJtvx2Zg388qv-1">
                    <mxGeometry x="590" y="520" width="120" height="60" as="geometry"/>
                </mxCell>
                <mxCell id="ehFJxMDNpgQIAw868Mmo-41" style="edgeStyle=orthogonalEdgeStyle;rounded=0;orthogonalLoop=1;jettySize=auto;html=1;exitX=1;exitY=0.5;exitDx=0;exitDy=0;endSize=1;strokeColor=#6c8ebf;strokeWidth=2;fillColor=#dae8fc;" edge="1" parent="hsnsQ7sLJtvx2Zg388qv-1" source="ehFJxMDNpgQIAw868Mmo-16" target="ehFJxMDNpgQIAw868Mmo-22">
                    <mxGeometry relative="1" as="geometry"/>
                </mxCell>
                <mxCell id="ehFJxMDNpgQIAw868Mmo-16" value="一级topic&lt;br&gt;主机" style="rounded=0;whiteSpace=wrap;html=1;fillColor=#fff2cc;dashed=1;strokeWidth=3;strokeColor=#FF0000;" vertex="1" parent="hsnsQ7sLJtvx2Zg388qv-1">
                    <mxGeometry x="760" y="90" width="120" height="60" as="geometry"/>
                </mxCell>
                <mxCell id="ehFJxMDNpgQIAw868Mmo-42" style="edgeStyle=orthogonalEdgeStyle;rounded=0;orthogonalLoop=1;jettySize=auto;html=1;exitX=1;exitY=0.5;exitDx=0;exitDy=0;entryX=0;entryY=0.5;entryDx=0;entryDy=0;endSize=1;strokeColor=#6c8ebf;strokeWidth=2;fillColor=#dae8fc;" edge="1" parent="hsnsQ7sLJtvx2Zg388qv-1" source="ehFJxMDNpgQIAw868Mmo-17" target="ehFJxMDNpgQIAw868Mmo-23">
                    <mxGeometry relative="1" as="geometry"/>
                </mxCell>
                <mxCell id="ehFJxMDNpgQIAw868Mmo-17" value="一级topic&lt;br&gt;接口" style="rounded=0;whiteSpace=wrap;html=1;dashed=1;strokeWidth=3;strokeColor=#FF0000;fillColor=#FFFFCC;" vertex="1" parent="hsnsQ7sLJtvx2Zg388qv-1">
                    <mxGeometry x="760" y="180" width="120" height="60" as="geometry"/>
                </mxCell>
                <mxCell id="ehFJxMDNpgQIAw868Mmo-43" style="edgeStyle=orthogonalEdgeStyle;rounded=0;orthogonalLoop=1;jettySize=auto;html=1;exitX=1;exitY=0.5;exitDx=0;exitDy=0;entryX=0;entryY=0.5;entryDx=0;entryDy=0;endSize=1;strokeColor=#6c8ebf;strokeWidth=2;fillColor=#dae8fc;" edge="1" parent="hsnsQ7sLJtvx2Zg388qv-1" source="ehFJxMDNpgQIAw868Mmo-18" target="ehFJxMDNpgQIAw868Mmo-24">
                    <mxGeometry relative="1" as="geometry"/>
                </mxCell>
                <mxCell id="ehFJxMDNpgQIAw868Mmo-18" value="一级topic&lt;br&gt;服务所有" style="rounded=0;whiteSpace=wrap;html=1;dashed=1;strokeWidth=3;strokeColor=#FF0000;fillColor=#FFFFCC;" vertex="1" parent="hsnsQ7sLJtvx2Zg388qv-1">
                    <mxGeometry x="760" y="270" width="120" height="60" as="geometry"/>
                </mxCell>
                <mxCell id="ehFJxMDNpgQIAw868Mmo-44" style="edgeStyle=orthogonalEdgeStyle;rounded=0;orthogonalLoop=1;jettySize=auto;html=1;exitX=1;exitY=0.5;exitDx=0;exitDy=0;entryX=0;entryY=0.5;entryDx=0;entryDy=0;endSize=1;strokeColor=#6c8ebf;strokeWidth=2;fillColor=#dae8fc;" edge="1" parent="hsnsQ7sLJtvx2Zg388qv-1" source="ehFJxMDNpgQIAw868Mmo-19" target="ehFJxMDNpgQIAw868Mmo-25">
                    <mxGeometry relative="1" as="geometry"/>
                </mxCell>
                <mxCell id="ehFJxMDNpgQIAw868Mmo-19" value="一级topic&lt;br&gt;天级别" style="rounded=0;whiteSpace=wrap;html=1;dashed=1;strokeWidth=3;strokeColor=#FF0000;fillColor=#FFFFCC;" vertex="1" parent="hsnsQ7sLJtvx2Zg388qv-1">
                    <mxGeometry x="760" y="370" width="120" height="60" as="geometry"/>
                </mxCell>
                <mxCell id="ehFJxMDNpgQIAw868Mmo-45" style="edgeStyle=orthogonalEdgeStyle;rounded=0;orthogonalLoop=1;jettySize=auto;html=1;exitX=1;exitY=0.5;exitDx=0;exitDy=0;entryX=0;entryY=0.5;entryDx=0;entryDy=0;endSize=1;strokeColor=#6c8ebf;strokeWidth=2;fillColor=#dae8fc;" edge="1" parent="hsnsQ7sLJtvx2Zg388qv-1" source="ehFJxMDNpgQIAw868Mmo-20" target="ehFJxMDNpgQIAw868Mmo-26">
                    <mxGeometry relative="1" as="geometry"/>
                </mxCell>
                <mxCell id="ehFJxMDNpgQIAw868Mmo-20" value="一级topic&lt;br&gt;远程主机" style="rounded=0;whiteSpace=wrap;html=1;dashed=1;strokeWidth=3;strokeColor=#FF0000;fillColor=#FFFFCC;" vertex="1" parent="hsnsQ7sLJtvx2Zg388qv-1">
                    <mxGeometry x="760" y="470" width="120" height="60" as="geometry"/>
                </mxCell>
                <mxCell id="ehFJxMDNpgQIAw868Mmo-46" style="edgeStyle=orthogonalEdgeStyle;rounded=0;orthogonalLoop=1;jettySize=auto;html=1;exitX=1;exitY=0.5;exitDx=0;exitDy=0;entryX=0;entryY=0.5;entryDx=0;entryDy=0;endSize=1;strokeColor=#6c8ebf;strokeWidth=2;fillColor=#dae8fc;" edge="1" parent="hsnsQ7sLJtvx2Zg388qv-1" source="ehFJxMDNpgQIAw868Mmo-21" target="ehFJxMDNpgQIAw868Mmo-27">
                    <mxGeometry relative="1" as="geometry"/>
                </mxCell>
                <mxCell id="ehFJxMDNpgQIAw868Mmo-21" value="一级topic&lt;br&gt;远程服务" style="rounded=0;whiteSpace=wrap;html=1;dashed=1;strokeWidth=3;strokeColor=#FF0000;fillColor=#FFFFCC;" vertex="1" parent="hsnsQ7sLJtvx2Zg388qv-1">
                    <mxGeometry x="760" y="570" width="120" height="60" as="geometry"/>
                </mxCell>
                <mxCell id="ehFJxMDNpgQIAw868Mmo-22" value="主机&lt;br&gt;consumer" style="rounded=0;whiteSpace=wrap;html=1;fillColor=#d5e8d4;dashed=1;strokeWidth=3;strokeColor=#FF0000;" vertex="1" parent="hsnsQ7sLJtvx2Zg388qv-1">
                    <mxGeometry x="940" y="90" width="120" height="60" as="geometry"/>
                </mxCell>
                <mxCell id="ehFJxMDNpgQIAw868Mmo-23" value="接口&lt;br&gt;consumer" style="rounded=0;whiteSpace=wrap;html=1;dashed=1;strokeWidth=3;strokeColor=#FF0000;fillColor=#CCFFFF;" vertex="1" parent="hsnsQ7sLJtvx2Zg388qv-1">
                    <mxGeometry x="940" y="180" width="120" height="60" as="geometry"/>
                </mxCell>
                <mxCell id="ehFJxMDNpgQIAw868Mmo-24" value="服务所有&lt;br&gt;consumer" style="rounded=0;whiteSpace=wrap;html=1;dashed=1;strokeWidth=3;strokeColor=#FF0000;fillColor=#CCFFFF;" vertex="1" parent="hsnsQ7sLJtvx2Zg388qv-1">
                    <mxGeometry x="940" y="270" width="120" height="60" as="geometry"/>
                </mxCell>
                <mxCell id="ehFJxMDNpgQIAw868Mmo-25" value="天级别&lt;br&gt;consumer" style="rounded=0;whiteSpace=wrap;html=1;dashed=1;strokeWidth=3;strokeColor=#FF0000;fillColor=#CCFFFF;" vertex="1" parent="hsnsQ7sLJtvx2Zg388qv-1">
                    <mxGeometry x="940" y="370" width="120" height="60" as="geometry"/>
                </mxCell>
                <mxCell id="ehFJxMDNpgQIAw868Mmo-26" value="远程主机&lt;br&gt;consumer" style="rounded=0;whiteSpace=wrap;html=1;dashed=1;strokeWidth=3;strokeColor=#FF0000;fillColor=#CCFFFF;" vertex="1" parent="hsnsQ7sLJtvx2Zg388qv-1">
                    <mxGeometry x="940" y="470" width="120" height="60" as="geometry"/>
                </mxCell>
                <mxCell id="ehFJxMDNpgQIAw868Mmo-27" value="远程服务&lt;br&gt;consumer" style="rounded=0;whiteSpace=wrap;html=1;dashed=1;strokeWidth=3;strokeColor=#FF0000;fillColor=#CCFFFF;" vertex="1" parent="hsnsQ7sLJtvx2Zg388qv-1">
                    <mxGeometry x="940" y="570" width="120" height="60" as="geometry"/>
                </mxCell>
                <mxCell id="ehFJxMDNpgQIAw868Mmo-55" value="" style="endArrow=none;dashed=1;html=1;strokeColor=#FF9999;strokeWidth=2;" edge="1" parent="hsnsQ7sLJtvx2Zg388qv-1">
                    <mxGeometry width="50" height="50" relative="1" as="geometry">
                        <mxPoint x="370" y="630" as="sourcePoint"/>
                        <mxPoint x="370" y="60" as="targetPoint"/>
                    </mxGeometry>
                </mxCell>
                <mxCell id="ehFJxMDNpgQIAw868Mmo-56" value="&lt;ul&gt;&lt;li&gt;数据散列，消除热点&lt;/li&gt;&lt;li&gt;提升聚和效率&lt;/li&gt;&lt;li&gt;分布式子计算，减少计算量&lt;/li&gt;&lt;/ul&gt;" style="text;html=1;align=left;verticalAlign=middle;resizable=0;points=[];autosize=1;" vertex="1" parent="hsnsQ7sLJtvx2Zg388qv-1">
                    <mxGeometry x="110" y="630" width="200" height="90" as="geometry"/>
                </mxCell>
                <mxCell id="ehFJxMDNpgQIAw868Mmo-57" value="" style="endArrow=none;dashed=1;html=1;strokeColor=#FF9999;strokeWidth=2;" edge="1" parent="hsnsQ7sLJtvx2Zg388qv-1">
                    <mxGeometry width="50" height="50" relative="1" as="geometry">
                        <mxPoint x="720" y="650" as="sourcePoint"/>
                        <mxPoint x="720" y="80" as="targetPoint"/>
                    </mxGeometry>
                </mxCell>
                <mxCell id="ehFJxMDNpgQIAw868Mmo-58" value="&lt;ul&gt;&lt;li&gt;指标计算、落地&lt;/li&gt;&lt;li&gt;二级散列，进一步压缩&lt;/li&gt;&lt;/ul&gt;" style="text;html=1;align=left;verticalAlign=middle;resizable=0;points=[];autosize=1;" vertex="1" parent="hsnsQ7sLJtvx2Zg388qv-1">
                    <mxGeometry x="370" y="660" width="180" height="70" as="geometry"/>
                </mxCell>
                <mxCell id="ehFJxMDNpgQIAw868Mmo-59" value="&lt;ul&gt;&lt;li&gt;指标落地&lt;/li&gt;&lt;li&gt;离线数据计算&lt;/li&gt;&lt;/ul&gt;" style="text;html=1;align=left;verticalAlign=middle;resizable=0;points=[];autosize=1;" vertex="1" parent="hsnsQ7sLJtvx2Zg388qv-1">
                    <mxGeometry x="780" y="660" width="130" height="70" as="geometry"/>
                </mxCell>
            </root>
        </mxGraphModel>
    </diagram>
</mxfile>